<svg xmlns="http://www.w3.org/2000/svg" width="491" height="491" viewbox="0 0 491 491" preserveAspectRatio="none"><rect x="0" y="0" width="100%" height="100%" fill="rgb(241, 245, 246)" /><rect x="0" y="5" width="100%" height="11" opacity="0.072" fill="#ddd" /><rect x="0" y="22" width="100%" height="9" opacity="0.054666666666667" fill="#ddd" /><rect x="0" y="38" width="100%" height="5" opacity="0.02" fill="#ddd" /><rect x="0" y="60" width="100%" height="20" opacity="0.15" fill="#222" /><rect x="0" y="93" width="100%" height="12" opacity="0.080666666666667" fill="#222" /><rect x="0" y="117" width="100%" height="15" opacity="0.10666666666667" fill="#ddd" /><rect x="0" y="137" width="100%" height="16" opacity="0.11533333333333" fill="#222" /><rect x="0" y="162" width="100%" height="20" opacity="0.15" fill="#222" /><rect x="0" y="196" width="100%" height="20" opacity="0.15" fill="#222" /><rect x="0" y="236" width="100%" height="8" opacity="0.046" fill="#222" /><rect x="0" y="256" width="100%" height="13" opacity="0.089333333333333" fill="#ddd" /><rect x="0" y="278" width="100%" height="20" opacity="0.15" fill="#222" /><rect x="0" y="308" width="100%" height="20" opacity="0.15" fill="#222" /><rect x="0" y="343" width="100%" height="7" opacity="0.037333333333333" fill="#ddd" /><rect x="0" y="368" width="100%" height="9" opacity="0.054666666666667" fill="#ddd" /><rect x="0" y="386" width="100%" height="11" opacity="0.072" fill="#ddd" /><rect x="0" y="417" width="100%" height="16" opacity="0.11533333333333" fill="#222" /><rect x="0" y="450" width="100%" height="7" opacity="0.037333333333333" fill="#ddd" /><rect x="0" y="473" width="100%" height="18" opacity="0.13266666666667" fill="#222" /><rect x="5" y="0" width="11" height="100%" opacity="0.072" fill="#ddd" /><rect x="22" y="0" width="9" height="100%" opacity="0.054666666666667" fill="#ddd" /><rect x="38" y="0" width="5" height="100%" opacity="0.02" fill="#ddd" /><rect x="60" y="0" width="20" height="100%" opacity="0.15" fill="#222" /><rect x="93" y="0" width="12" height="100%" opacity="0.080666666666667" fill="#222" /><rect x="117" y="0" width="15" height="100%" opacity="0.10666666666667" fill="#ddd" /><rect x="137" y="0" width="16" height="100%" opacity="0.11533333333333" fill="#222" /><rect x="162" y="0" width="20" height="100%" opacity="0.15" fill="#222" /><rect x="196" y="0" width="20" height="100%" opacity="0.15" fill="#222" /><rect x="236" y="0" width="8" height="100%" opacity="0.046" fill="#222" /><rect x="256" y="0" width="13" height="100%" opacity="0.089333333333333" fill="#ddd" /><rect x="278" y="0" width="20" height="100%" opacity="0.15" fill="#222" /><rect x="308" y="0" width="20" height="100%" opacity="0.15" fill="#222" /><rect x="343" y="0" width="7" height="100%" opacity="0.037333333333333" fill="#ddd" /><rect x="368" y="0" width="9" height="100%" opacity="0.054666666666667" fill="#ddd" /><rect x="386" y="0" width="11" height="100%" opacity="0.072" fill="#ddd" /><rect x="417" y="0" width="16" height="100%" opacity="0.11533333333333" fill="#222" /><rect x="450" y="0" width="7" height="100%" opacity="0.037333333333333" fill="#ddd" /><rect x="473" y="0" width="18" height="100%" opacity="0.13266666666667" fill="#222" /></svg>